<svg xmlns="http://www.w3.org/2000/svg" viewBox="0 0 64 64">
  <defs>
    <linearGradient id="grad" x1="0%" y1="0%" x2="100%" y2="100%">
      <stop offset="0%" style="stop-color:#3B82F6;stop-opacity:1" />
      <stop offset="100%" style="stop-color:#1D4ED8;stop-opacity:1" />
    </linearGradient>
  </defs>
  
  <!-- Background circle -->
  <circle cx="32" cy="32" r="30" fill="url(#grad)"/>
  
  <!-- Open book -->
  <path d="M 20 26 Q 20 22 24 22 L 30 22 Q 32 22 32 24 L 32 42 Q 32 40 30 40 L 24 40 Q 20 40 20 36 Z" 
        fill="#FFFFFF" opacity="0.95"/>
  <path d="M 44 26 Q 44 22 40 22 L 34 22 Q 32 22 32 24 L 32 42 Q 32 40 34 40 L 40 40 Q 44 40 44 36 Z" 
        fill="#FFFFFF" opacity="0.95"/>
  
  <!-- Book spine/center line -->
  <line x1="32" y1="22" x2="32" y2="42" stroke="#E0E7FF" stroke-width="0.5"/>
  
  <!-- Star/sparkle for merit -->
  <path d="M 32 14 L 33.5 18 L 37.5 18.5 L 34.5 21 L 35.5 25 L 32 22.5 L 28.5 25 L 29.5 21 L 26.5 18.5 L 30.5 18 Z" 
        fill="#FCD34D" stroke="#F59E0B" stroke-width="0.5"/>
</svg>
